<svg width="30" height="30" viewBox="0 0 30 30" fill="none" xmlns="http://www.w3.org/2000/svg">
<path d="M18.4631 8.6768C18.463 7.99183 18.2598 7.32228 17.8792 6.75279C17.4986 6.18331 16.9576 5.73947 16.3248 5.47741C15.6919 5.21535 14.9956 5.14683 14.3238 5.28052C13.652 5.41421 13.0349 5.7441 12.5506 6.22847C12.0663 6.71285 11.7365 7.32996 11.6029 8.00178C11.4693 8.67359 11.5379 9.36993 11.8001 10.0027C12.0622 10.6356 12.5061 11.1764 13.0756 11.557C13.6452 11.9375 14.3148 12.1406 14.9997 12.1406C15.918 12.1395 16.7984 11.7742 17.4476 11.1248C18.0969 10.4755 18.4621 9.59508 18.4631 8.6768ZM12.3567 8.6768C12.3568 8.15408 12.5119 7.64312 12.8024 7.20853C13.0928 6.77395 13.5056 6.43526 13.9886 6.23528C14.4716 6.03531 15.003 5.98303 15.5157 6.08507C16.0283 6.1871 16.4992 6.43887 16.8688 6.80852C17.2384 7.17818 17.4901 7.64912 17.592 8.16181C17.694 8.6745 17.6416 9.2059 17.4415 9.68883C17.2415 10.1718 16.9027 10.5845 16.4681 10.8749C16.0334 11.1653 15.5225 11.3203 14.9997 11.3203C14.2989 11.3195 13.6271 11.0407 13.1315 10.5451C12.636 10.0495 12.3574 9.37761 12.3567 8.6768Z" fill="#CF8C17"/>
<path d="M28.9048 28.3755L25.5612 19.6099C25.5315 19.5323 25.479 19.4655 25.4106 19.4184C25.3422 19.3713 25.2611 19.346 25.178 19.346H18.8499C18.8885 19.283 18.927 19.2218 18.9657 19.1585C21.4006 15.1273 22.6259 11.6009 22.6083 8.67867C22.6087 6.66071 21.8074 4.72526 20.3807 3.2981C18.954 1.87094 17.0188 1.06898 15.0009 1.06863C12.9829 1.06829 11.0474 1.8696 9.62028 3.29627C8.19312 4.72295 7.39116 6.65813 7.39082 8.6761C7.37324 11.6009 8.59855 15.1277 11.0335 19.1585C11.0721 19.2225 11.1106 19.2837 11.1493 19.346H4.82113C4.73805 19.346 4.65694 19.3713 4.58851 19.4184C4.52009 19.4655 4.46758 19.5323 4.43793 19.6099L1.0948 28.3755C1.07098 28.4377 1.06264 28.5046 1.0705 28.5707C1.07836 28.6367 1.10218 28.6999 1.13991 28.7546C1.17763 28.8094 1.22813 28.8542 1.28704 28.8851C1.34595 28.916 1.41149 28.9321 1.478 28.932H28.5216C28.5881 28.9321 28.6537 28.916 28.7126 28.8851C28.7715 28.8542 28.822 28.8094 28.8597 28.7546C28.8974 28.6999 28.9212 28.6367 28.9291 28.5707C28.937 28.5046 28.9286 28.4377 28.9048 28.3755ZM8.21136 8.6768C8.21152 7.78533 8.38726 6.90262 8.72855 6.07906C9.06984 5.25551 9.57 4.50725 10.2005 3.87699C10.831 3.24673 11.5794 2.74683 12.4031 2.40582C13.2267 2.06481 14.1095 1.88938 15.001 1.88953C15.8924 1.88969 16.7752 2.06543 17.5987 2.40672C18.4223 2.74801 19.1705 3.24817 19.8008 3.87865C20.431 4.50912 20.9309 5.25756 21.2719 6.08123C21.613 6.9049 21.7884 7.78767 21.7882 8.67914C21.8234 14.5052 16.3765 21.6909 14.9998 23.4141C13.6231 21.6916 8.17597 14.5078 8.21136 8.6768ZM14.6874 24.3281C14.7259 24.3734 14.7738 24.4098 14.8277 24.4347C14.8817 24.4596 14.9404 24.4725 14.9998 24.4725C15.0592 24.4725 15.1179 24.4596 15.1719 24.4347C15.2258 24.4098 15.2737 24.3734 15.3122 24.3281C16.4012 23.0015 17.4108 21.6117 18.3357 20.1659H24.8951L25.4201 21.5428L12.6019 26.1016L8.033 20.1652H11.6635C12.5885 21.6112 13.5982 23.0013 14.6874 24.3281ZM12.5876 26.9766H12.59L20.2369 24.2578L23.2029 28.1116H9.39824L12.5876 26.9766ZM5.10402 20.1652H6.99777L11.7889 26.3906L6.95066 28.1114H2.07332L5.10402 20.1652ZM24.2391 28.1116L21.0495 23.9674L25.7135 22.3088L27.9268 28.1116H24.2391Z" fill="#CF8C17"/>
</svg>
