<svg width="30" height="30" viewBox="0 0 30 30" fill="none" xmlns="http://www.w3.org/2000/svg">
<path d="M5.07936 20.5095C5.81105 23.6758 7.17538 26.6614 9.09036 29.287C9.75436 30.237 20.2444 30.237 20.9094 29.287C22.8243 26.6614 24.1887 23.6758 24.9204 20.5095C26.3589 19.439 26.7284 17.869 26.3644 16.116C26.031 14.7914 25.4746 13.5333 24.7189 12.3955C24.7218 12.0103 24.6263 11.6308 24.4414 11.293C23.8314 9.82698 21.8309 8.25248 20.2824 7.49298C20.7824 6.24854 20.6276 4.83656 19.8699 3.72998C19.1361 2.7511 17.8707 2.33222 16.6979 2.67998C17.4239 0.802982 18.6924 0.579982 20.4119 1.60848C20.648 1.74298 20.9484 1.66418 21.0882 1.43106C21.2279 1.19794 21.1558 0.895886 20.9259 0.750982C18.4964 -0.704518 16.6709 0.0554821 15.7939 2.24998C15.0608 1.36228 13.8748 0.987763 12.7649 1.29348C10.6464 1.88598 9.18736 4.61398 10.4894 7.33648C8.23936 8.28648 5.51436 10.0075 4.89936 12.371C4.8404 12.6203 4.82351 12.8776 4.84936 13.1325C3.38136 15.75 2.64986 18.704 5.07936 20.5095ZM20.1794 28.5855C18.3794 29.1425 11.6124 29.141 9.82136 28.5855C8.21676 26.3311 7.01156 23.8177 6.25836 21.155C8.03086 21.827 10.4029 21.751 11.7894 20.291C11.835 20.246 11.8749 20.1956 11.9084 20.141C12.5124 21.2842 13.699 21.9996 14.992 22.0003C16.2849 22.0009 17.4722 21.2866 18.0774 20.144C19.3984 21.7095 21.8474 21.8755 23.7409 21.1575C22.9877 23.8191 21.783 26.3316 20.1794 28.5855ZM12.0354 2.83048C13.3744 1.64948 14.8729 2.29848 15.2559 3.27598C15.3674 3.54549 15.5899 3.75367 15.8663 3.847C16.1426 3.94032 16.4458 3.90969 16.6979 3.76298C17.5209 3.35289 18.5195 3.59107 19.0689 4.32848C19.2974 4.64803 19.4495 5.01583 19.5134 5.40348C19.8169 7.00348 18.8634 8.52598 17.2254 9.18898C16.1575 9.25602 15.0869 9.26686 14.0179 9.22148C10.9884 8.14998 10.0659 4.60298 12.0354 2.83048ZM5.86886 12.616C6.39786 10.5855 9.07286 8.99548 11.0059 8.20348C11.2276 8.50523 11.4801 8.78306 11.7594 9.03248C11.6484 9.01748 11.5849 9.00748 11.5809 9.00648C11.3083 8.96175 11.0511 9.14643 11.0064 9.41898C10.9616 9.69153 11.1463 9.94875 11.4189 9.99348C13.9773 10.3367 16.5697 10.3433 19.1299 10.013C19.3575 9.98489 19.5362 9.8044 19.562 9.57651C19.5878 9.34861 19.454 9.13274 19.2384 9.05448C19.4486 8.84981 19.639 8.62564 19.8069 8.38498C21.2994 9.11248 23.2234 10.5715 23.7209 12.1785C22.4769 11.8455 21.7599 11.4355 21.0889 11.8285C20.1479 12.39 20.6704 13.6375 20.7064 14.089C20.7395 14.4008 20.647 14.713 20.4494 14.9565C20.4244 14.977 20.3804 15.01 20.2494 14.968C19.5369 14.7345 19.2124 12.14 17.3189 11.6505C16.5159 11.41 15.6541 11.7645 15.2529 12.5005C14.8454 13.3475 15.3029 14.1005 15.1199 14.6825C15.0606 14.8848 14.893 15.0368 14.6859 15.076C14.5211 15.0956 14.3632 15.0042 14.2984 14.8515C14.2299 14.6185 14.4189 14.23 14.4699 13.796C14.5709 12.8035 13.9346 11.885 12.9699 11.631C12.1627 11.4558 11.331 11.7959 10.8779 12.4865C10.0394 13.792 11.2684 15.332 10.8064 16.125C10.661 16.3784 10.3698 16.5103 10.0834 16.4524C9.79709 16.3946 9.57992 16.1599 9.54436 15.87C9.46236 15.213 10.2764 14.295 9.89436 13.299C9.51236 12.303 8.11636 11.8865 7.03786 12.8645C6.73786 13.1425 6.43786 13.5095 6.22036 13.544C6.00286 13.5785 5.71736 13.232 5.86886 12.616ZM5.38586 14.243C5.65977 14.4809 6.02398 14.5872 6.38286 14.534C6.82665 14.4215 7.22152 14.1671 7.50736 13.8095C7.73317 13.4912 8.10222 13.3058 8.49236 13.3145C8.69788 13.3407 8.87554 13.4706 8.96286 13.6585C9.16586 14.19 8.43286 15.0365 8.55436 16.0015C8.64506 16.7158 9.18124 17.2927 9.88701 17.4353C10.5928 17.5779 11.3109 17.2545 11.6719 16.6315C12.4149 15.356 11.1719 13.885 11.7179 13.0345C11.9428 12.7006 12.3447 12.5324 12.7404 12.6065C13.2106 12.7438 13.5192 13.1933 13.4784 13.6815C13.3198 14.1483 13.2724 14.6456 13.3399 15.134C13.5417 15.757 14.1562 16.15 14.8064 16.072C15.4072 15.9887 15.904 15.5619 16.0769 14.9805C16.3269 14.1895 15.9364 13.3925 16.1559 12.9365C16.3551 12.6414 16.7246 12.5122 17.0644 12.619C18.0064 12.863 18.4294 14.1055 18.9144 14.9565C19.5529 16.0835 20.4894 16.195 21.0644 15.7465C21.5306 15.2976 21.7657 14.66 21.7024 14.016C21.6849 13.8476 21.6564 13.6806 21.6169 13.516C21.3449 12.245 21.5669 12.6355 23.4824 13.148C23.6558 13.193 23.8375 13.1961 24.0124 13.157C24.6399 14.129 25.1034 15.1976 25.3844 16.32C25.7399 18.024 25.2344 19.389 23.6579 20.1075C22.1404 20.794 19.9209 20.7825 18.8414 19.497C18.6296 19.2475 18.3086 19.1181 17.983 19.1511C17.6574 19.184 17.3688 19.3751 17.2114 19.662C16.8032 20.5056 15.9366 21.0299 14.9999 21C14.0633 21.0308 13.1964 20.5075 12.7874 19.6645C12.6299 19.3773 12.3411 19.186 12.0151 19.1531C11.6892 19.1203 11.368 19.25 11.1564 19.5C10.0889 20.776 7.87036 20.8 6.34186 20.11C3.94286 19.0175 4.20336 16.5875 5.38586 14.243Z" fill="#C1254A"/>
<path d="M9.97437 22.842C9.91793 22.6723 9.77523 22.5456 9.60004 22.5096C9.42485 22.4737 9.24379 22.5339 9.12504 22.6676C9.0063 22.8014 8.96793 22.9883 9.02438 23.158C9.06638 23.283 10.0574 26.2395 11.0829 27.7775C11.182 27.9261 11.3529 28.0106 11.5312 27.999C11.7095 27.9875 11.8681 27.8817 11.9472 27.7215C12.0263 27.5613 12.014 27.3711 11.9149 27.2225C10.9649 25.7965 9.98387 22.8715 9.97437 22.842Z" fill="#C1254A"/>
<path d="M13.5 23C13.2239 23 13 23.2239 13 23.5V27C13 27.2762 13.2239 27.5 13.5 27.5C13.7761 27.5 14 27.2762 14 27V23.5C14 23.2239 13.7761 23 13.5 23Z" fill="#C1254A"/>
<path d="M20.6578 22.5255C20.532 22.4836 20.3946 22.4934 20.276 22.5527C20.1574 22.6121 20.0672 22.7162 20.0253 22.842C20.0158 22.8715 19.0358 25.795 18.0838 27.2225C17.9847 27.3712 17.9724 27.5614 18.0515 27.7216C18.1306 27.8817 18.2892 27.9875 18.4675 27.9991C18.6458 28.0106 18.8167 27.9262 18.9158 27.7775C19.9413 26.2395 20.9323 23.283 20.9743 23.158C21.0163 23.0322 21.0065 22.8948 20.9471 22.7762C20.8878 22.6576 20.7837 22.5674 20.6578 22.5255Z" fill="#C1254A"/>
<path d="M16.4997 23C16.2236 23 15.9998 23.2239 15.9998 23.5V27C15.9998 27.2762 16.2236 27.5 16.4997 27.5C16.7759 27.5 16.9997 27.2762 16.9997 27V23.5C16.9997 23.2239 16.7759 23 16.4997 23Z" fill="#C1254A"/>
<path d="M12.1794 4.918C12.4381 5.01434 12.726 4.88273 12.8224 4.624C12.8772 4.44875 12.9703 4.28787 13.0949 4.153C13.1675 4.0761 13.2686 4.03251 13.3744 4.0325C13.5527 4.06307 13.7336 3.99493 13.8475 3.85432C13.9613 3.71371 13.9903 3.52257 13.9233 3.35451C13.8563 3.18646 13.7038 3.06771 13.5244 3.044C13.1102 2.99355 12.6959 3.13688 12.4014 3.4325C12.1668 3.67005 11.9902 3.95854 11.8854 4.2755C11.7894 4.5341 11.9209 4.8216 12.1794 4.918Z" fill="#C1254A"/>
</svg>
