<svg width="51" height="28" viewBox="0 0 51 28" fill="none" xmlns="http://www.w3.org/2000/svg">
<path fill-rule="evenodd" clip-rule="evenodd" d="M40.069 0H0V22.6897H3.13793V3.13793H40.069V0ZM50.5857 15.6689V15.7482V17.7378V17.8535V19.8101V19.9324V21.889V22.0046V24.0769C50.589 25.0783 49.9346 26.0831 48.6159 26.8498C47.2939 27.6166 45.5653 28 43.8302 28C42.0983 28 40.3632 27.6166 39.0345 26.8498C37.7092 26.0864 37.0416 25.0816 37.035 24.0769V22.0046V21.9683V19.9324V19.896V17.8601V17.8238V15.7515C37.0317 14.7468 37.6861 13.742 39.0048 12.9753C41.6389 11.445 45.9355 11.445 48.5861 12.9753C49.8784 13.7189 50.5394 14.6906 50.5791 15.6689H50.5857ZM40.7499 14.294L40.383 14.5055C40.2905 14.5584 40.2905 14.6443 40.3698 14.6939L40.9184 15.0112C40.8892 15.0435 40.8587 15.0752 40.8282 15.1068C40.7621 15.1754 40.6961 15.2439 40.6441 15.3185C40.2574 15.8672 40.2475 16.4125 40.7201 16.9479C40.9217 17.1727 41.1729 17.371 41.4704 17.5428C41.7546 17.7081 42.0818 17.8469 42.4454 17.9659C42.6437 18.0287 42.8453 18.0849 43.0502 18.1311C43.2551 18.1708 43.3972 18.1311 43.4732 18.0221C43.5658 17.9031 43.6517 17.7808 43.7277 17.6552C43.7806 17.5726 43.7674 17.5131 43.6781 17.4602C43.6517 17.4437 43.622 17.4305 43.5856 17.4172C43.4682 17.3741 43.349 17.3336 43.2308 17.2935L43.2305 17.2934L43.2304 17.2934L43.2303 17.2933C43.1224 17.2567 43.0154 17.2204 42.9114 17.1826C42.7164 17.1066 42.5346 17.0239 42.3693 16.9281C42.181 16.819 42.019 16.6967 41.8934 16.5579C41.5993 16.2307 41.6819 15.9168 41.943 15.5995L43.1163 16.277C43.2121 16.3299 43.3575 16.3299 43.4501 16.277L43.8169 16.0655C43.9095 16.0126 43.9095 15.9267 43.8169 15.8738L42.5313 15.1335L42.533 15.1324L42.5336 15.1321C42.6353 15.0731 42.7369 15.0141 42.832 14.9583L44.1177 15.6986C44.2103 15.7515 44.359 15.7515 44.4515 15.6986L44.8184 15.4871C44.9109 15.4342 44.9109 15.3483 44.8184 15.2954L43.698 14.6476L43.7145 14.6443C44.1574 14.5419 44.5969 14.5154 45.0464 14.6278C45.3472 14.7005 45.5984 14.8063 45.8165 14.9319C45.9818 15.0277 46.1272 15.1368 46.2594 15.2524C46.3503 15.3292 46.4325 15.4109 46.5144 15.4922L46.5144 15.4922L46.5145 15.4923C46.5666 15.544 46.6185 15.5956 46.6725 15.6457C46.6794 15.6507 46.6861 15.6556 46.6926 15.6605C46.7078 15.6719 46.7224 15.6828 46.7386 15.692C46.8278 15.7449 46.9303 15.7515 47.0757 15.7218C47.2839 15.6755 47.4922 15.6292 47.6971 15.5763C47.8921 15.5301 47.9582 15.4507 47.902 15.3351L47.8524 15.2491C47.6078 14.9352 47.2939 14.6575 46.884 14.4196C46.7287 14.3303 46.5568 14.2444 46.3717 14.1684C45.8991 13.9701 45.3835 13.8346 44.8085 13.7916C44.0747 13.7387 43.3873 13.828 42.7395 14.0263L42.6635 14.0494L42.0851 13.7156C41.9926 13.6627 41.8438 13.6627 41.7513 13.7156L41.3844 13.9271C41.2919 13.98 41.2919 14.0659 41.3844 14.1188L41.8372 14.3799C41.7876 14.4097 41.7372 14.4386 41.6868 14.4675C41.6364 14.4964 41.586 14.5253 41.5365 14.5551L41.0837 14.294C40.9878 14.2411 40.8424 14.2411 40.7499 14.294ZM48.6159 18.5244C45.9785 20.058 41.6885 20.058 39.0345 18.5244C38.6115 18.2799 38.2612 18.0055 37.967 17.7213V17.8568C37.9736 18.541 38.5322 19.2615 39.5006 19.82C40.6441 20.481 42.1843 20.8446 43.8302 20.8446C45.4761 20.8446 47.0063 20.481 48.1433 19.82C49.1017 19.2648 49.6504 18.5476 49.647 17.8601V17.7444C49.3661 18.0221 49.0257 18.2865 48.6159 18.5244ZM43.8335 24.9858C45.4794 24.9858 47.0096 24.6222 48.1466 23.9612C49.105 23.406 49.6537 22.6921 49.647 22.0046V21.922C49.3661 22.1996 49.0257 22.464 48.6159 22.702C47.2939 23.4688 45.5653 23.8522 43.8302 23.8522C42.0983 23.8522 40.3632 23.4688 39.0345 22.702C38.6082 22.4574 38.2612 22.1864 37.9703 21.8989V21.998C37.9769 22.6822 38.5355 23.4027 39.5039 23.9612C40.6474 24.6222 42.1876 24.9858 43.8335 24.9858ZM43.8335 22.9168C45.4794 22.9168 47.0096 22.5533 48.1466 21.8923C49.105 21.3337 49.6537 20.6198 49.647 19.9357V19.8531C49.3661 20.1307 49.0257 20.3951 48.6159 20.6331C47.2939 21.3998 45.5653 21.7832 43.8302 21.7832C42.0983 21.7832 40.3632 21.3998 39.0345 20.6331C38.6082 20.3885 38.2612 20.1175 37.9703 19.8299V19.9291C37.9769 20.6132 38.5355 21.3337 39.5039 21.8923C40.6474 22.5533 42.1876 22.9168 43.8335 22.9168ZM43.8335 27.0581C45.4794 27.0581 47.0096 26.6945 48.1466 26.0335C49.105 25.4782 49.6537 24.7611 49.647 24.0769V23.9943C49.3661 24.2719 49.0257 24.5363 48.6159 24.7743C47.2939 25.541 45.5653 25.9244 43.8302 25.9244C42.0983 25.9244 40.3632 25.541 39.0345 24.7743C38.6082 24.5297 38.2612 24.2587 37.9703 23.9711V24.0703C37.9769 24.7544 38.5355 25.4749 39.5039 26.0335C40.6474 26.6945 42.1876 27.0581 43.8335 27.0581ZM6.51724 6.27586H43.6897V9.6944C41.3959 9.51175 38.9981 9.96688 37.2457 11.0598C35.7423 11.9982 34.9962 13.2279 35 14.4576V16.9938V17.0383V19.53V19.5745V22.0662V22.1107V24.6469L35.0002 24.6798C35.002 25.0031 35.0052 25.5862 35.1539 25.5862H6.51724V6.27586ZM24.7414 23.1724C28.674 23.1724 31.8621 19.9844 31.8621 16.0517C31.8621 12.1191 28.674 8.93103 24.7414 8.93103C20.8087 8.93103 17.6207 12.1191 17.6207 16.0517C17.6207 19.9844 20.8087 23.1724 24.7414 23.1724ZM20.5172 16.4472C20.5172 16.3025 20.6265 16.1899 20.767 16.1899H21.4537V15.7155H20.767C20.6265 15.7155 20.5172 15.6029 20.5172 15.4582V14.8792C20.5172 14.7345 20.6265 14.6219 20.767 14.6219H21.641L21.6722 14.5335C21.9063 13.7615 22.3121 13.1022 22.9365 12.6036C23.4281 12.2096 24.0056 11.9925 24.6143 11.888C25.4883 11.7433 26.3312 11.8639 27.1506 12.1936C27.1779 12.2056 27.2032 12.2177 27.2286 12.2297C27.254 12.2418 27.2793 12.2539 27.3066 12.2659C27.5017 12.3865 27.5564 12.5393 27.4705 12.7564C27.4237 12.869 27.3769 12.9836 27.33 13.0983C27.2832 13.2128 27.2364 13.3274 27.1896 13.4399C27.1037 13.6329 26.9867 13.6972 26.7838 13.649C26.671 13.6224 26.5582 13.5917 26.4448 13.5609C26.2837 13.5171 26.1215 13.4729 25.9566 13.4399C25.3713 13.3193 24.7938 13.3112 24.2241 13.5444C23.7325 13.7455 23.4359 14.1314 23.233 14.6058V14.6219H24.9265C25.0669 14.6219 25.1762 14.7345 25.1762 14.8792V15.4582C25.1762 15.6029 25.0669 15.7155 24.9265 15.7155H22.9833V16.1899H24.9265C25.0669 16.1899 25.1762 16.3025 25.1762 16.4472V17.0262C25.1762 17.1709 25.0669 17.2835 24.9265 17.2835H23.1472C23.3579 17.9187 23.709 18.4092 24.3646 18.6183C24.8874 18.7872 25.4181 18.7791 25.9488 18.6666C26.1048 18.6344 26.2609 18.5917 26.417 18.5491C26.5341 18.5171 26.6511 18.4851 26.7682 18.4575C26.9867 18.4092 27.0959 18.4655 27.1896 18.6746C27.291 18.8997 27.3847 19.1329 27.4783 19.3661L27.4783 19.3661C27.5642 19.5752 27.5095 19.7441 27.2988 19.8405C27.0803 19.9451 26.854 20.0255 26.6277 20.0898C25.7459 20.3391 24.864 20.3471 23.9822 20.0576C22.9208 19.7038 22.2185 18.956 21.7971 17.9107C21.7397 17.763 21.695 17.6065 21.6506 17.451C21.6345 17.3949 21.6185 17.3389 21.602 17.2835H20.7748C20.6343 17.2835 20.525 17.1709 20.525 17.0262V16.4472H20.5172Z" fill="#1A1A1A"/>
</svg>
