<?xml version="1.0" ?><!DOCTYPE svg  PUBLIC '-//W3C//DTD SVG 1.1//EN'  'http://www.w3.org/Graphics/SVG/1.1/DTD/svg11.dtd'><svg height="100%" style="fill-rule:evenodd;clip-rule:evenodd;stroke-linejoin:round;stroke-miterlimit:1.41421;" version="1.1" viewBox="0 0 384 230" width="100%" xml:space="preserve" xmlns="http://www.w3.org/2000/svg" xmlns:xlink="http://www.w3.org/1999/xlink"><g transform="matrix(4.16667,0,0,4.16667,0,0)"><path d="M21.92,23.854C22.379,24.474 22.744,25.165 22.993,25.908C23.243,26.652 23.379,27.446 23.379,28.28C23.379,29.113 23.243,29.908 22.993,30.651C22.744,31.395 22.378,32.087 21.92,32.708C21.294,33.55 21.469,34.742 22.315,35.37C23.158,35.995 24.347,35.816 24.975,34.975C25.67,34.041 26.221,32.992 26.6,31.866C26.98,30.739 27.185,29.529 27.185,28.28C27.185,27.031 26.98,25.823 26.602,24.696C26.221,23.567 25.67,22.523 24.977,21.585C24.351,20.744 23.16,20.567 22.316,21.194C21.471,21.82 21.294,23.009 21.92,23.854Z" style="fill:rgb(35,31,32);fill-rule:nonzero;"/><path d="M28.44,20.304C29.875,22.629 30.696,25.348 30.698,28.28C30.696,31.212 29.875,33.933 28.44,36.255C27.892,37.15 28.17,38.321 29.064,38.874C29.959,39.424 31.131,39.147 31.682,38.253C33.47,35.356 34.504,31.928 34.502,28.28C34.504,24.631 33.47,21.206 31.682,18.307C31.131,17.413 29.959,17.135 29.064,17.688C28.17,18.24 27.892,19.411 28.44,20.304Z" style="fill:rgb(35,31,32);fill-rule:nonzero;"/><path d="M35.355,16.691C37.343,20.094 38.48,24.046 38.48,28.28C38.48,32.513 37.343,36.465 35.353,39.868C34.822,40.778 35.131,41.942 36.036,42.473C36.944,43.004 38.109,42.698 38.639,41.791C40.958,37.825 42.284,33.2 42.284,28.28C42.284,23.362 40.958,18.737 38.641,14.771C38.109,13.864 36.946,13.558 36.038,14.087C35.131,14.616 34.823,15.783 35.355,16.691Z" style="fill:rgb(35,31,32);fill-rule:nonzero;"/><path d="M42.248,13.063C44.804,17.553 46.26,22.739 46.263,28.28C46.26,33.823 44.804,39.008 42.248,43.497C41.727,44.412 42.047,45.573 42.961,46.092C43.874,46.611 45.032,46.292 45.554,45.381C48.426,40.338 50.069,34.493 50.069,28.28C50.069,22.066 48.426,16.223 45.554,11.178C45.034,10.266 43.874,9.946 42.961,10.467C42.049,10.989 41.727,12.15 42.248,13.063Z" style="fill:rgb(35,31,32);fill-rule:nonzero;"/><path d="M0,27.884C0,42.837 17.1,55 38.12,55C51.309,55 63.379,50.26 70.405,42.321L69.624,41.629C62.793,49.349 51.015,53.958 38.12,53.958C17.675,53.958 1.043,42.261 1.043,27.884C1.043,13.506 17.675,1.809 38.12,1.809C54.919,1.809 69.658,9.78 73.962,21.193L74.939,20.826C70.484,9.015 55.343,0.766 38.12,0.766C17.1,0.766 0,12.931 0,27.884Z" style="fill:rgb(35,31,32);fill-rule:nonzero;"/><path d="M63.465,21.144C62.762,20.666 61.859,20.464 60.966,20.604C60.964,20.605 60.962,20.604 60.96,20.604C60.722,20.641 60.493,20.701 60.272,20.781C59.852,20.934 59.469,21.169 59.135,21.466C59.12,21.48 59.101,21.49 59.087,21.504C58.914,21.663 58.756,21.839 58.615,22.033C58.486,22.21 58.379,22.398 58.286,22.591C58.256,22.651 58.235,22.713 58.209,22.775C58.151,22.913 58.101,23.053 58.061,23.197C58.042,23.268 58.024,23.339 58.009,23.413C57.979,23.557 57.96,23.704 57.948,23.852C57.942,23.921 57.933,23.987 57.932,24.055C57.931,24.083 57.925,24.109 57.925,24.136C57.925,24.323 57.94,24.511 57.969,24.7C58.104,25.571 58.569,26.363 59.313,26.99C59.313,26.99 60.071,27.636 61.183,28.585L55.87,27.552C55.155,27.406 54.926,27.193 55.087,26.293L56.704,17.651C56.885,16.782 57.018,16.691 57.88,16.854L67.301,18.629C68.29,18.842 68.356,18.936 68.17,19.885L67.447,23.459L63.465,21.144ZM71.102,37.2L69.824,37.399C69.529,37.445 68.948,37.254 68.615,37.1C68.468,36.994 63.083,33.089 63.083,33.089C62.82,32.872 62.681,32.541 62.681,32.203C62.681,31.931 62.77,31.656 62.958,31.428C63.441,30.844 63.931,30.978 64.286,31.23C67.184,33.701 70.272,36.334 70.272,36.334C70.287,36.346 70.631,36.641 71.102,37.2ZM71.053,41.29C70.143,41.432 69.273,41.022 69.264,41.017C69.233,41.004 65.355,39.352 64.572,39.019C64.347,38.817 64.192,38.551 64.164,38.249C64.161,38.211 64.159,38.172 64.159,38.134C64.159,37.856 64.253,37.589 64.433,37.374C64.639,37.125 64.929,36.97 65.25,36.94C65.568,36.911 65.879,37.007 66.127,37.212C66.168,37.244 67.782,38.41 67.782,38.41C67.818,38.436 67.858,38.459 67.899,38.48C68.104,38.579 69.175,39.066 70.06,38.93L72.106,38.612C72.497,39.251 72.888,40.028 73.231,40.952L71.053,41.29ZM91.628,40.916L80.146,23.413C80.005,23.232 77.726,20.446 75.099,20.379C75.075,20.379 71.29,20.437 69.632,20.462L69.688,20.188C70.125,17.97 68.946,17.399 67.608,17.111C67.588,17.107 58.168,15.331 58.168,15.331C56.464,15.01 55.545,15.632 55.184,17.349C55.18,17.366 53.563,26.014 53.563,26.014C53.186,28.126 54.445,28.841 55.567,29.072C55.573,29.073 59.681,29.872 61.905,30.303C61.859,30.351 61.808,30.388 61.764,30.441C61.342,30.952 61.136,31.572 61.136,32.189C61.136,32.982 61.476,33.769 62.133,34.313C62.149,34.325 63.016,34.955 64.063,35.713C63.752,35.88 63.471,36.105 63.24,36.385C62.829,36.881 62.609,37.494 62.609,38.131C62.609,38.218 62.613,38.306 62.622,38.395C62.691,39.128 63.042,39.79 63.609,40.258C63.667,40.305 63.73,40.344 63.798,40.374L68.623,42.427C68.637,42.435 69.889,43.04 71.293,42.821C71.294,42.821 73.035,42.55 73.904,42.416C74.813,44.016 76.996,46.809 81.289,47.119C81.715,47.15 82.087,46.829 82.117,46.402C82.148,45.975 81.827,45.604 81.4,45.574C76.508,45.22 74.896,40.972 74.831,40.792C73.542,36.995 71.351,35.213 71.258,35.139C71.268,35.148 68.268,32.588 65.405,30.148C65.396,30.139 65.391,30.127 65.381,30.118L63.218,28.275L60.577,26.03C60.405,25.883 60.309,25.802 60.309,25.802C59.965,25.513 59.726,25.187 59.595,24.83C59.551,24.711 59.52,24.587 59.501,24.462C59.416,23.922 59.545,23.384 59.866,22.946C60.186,22.506 60.66,22.218 61.198,22.135C61.706,22.054 62.216,22.168 62.641,22.456C62.686,22.484 75.522,29.945 75.522,29.945C75.892,30.16 76.367,30.034 76.582,29.665C76.796,29.295 76.67,28.82 76.301,28.605L68.861,24.28L69.319,22.016L75.091,21.927C76.643,21.967 78.366,23.671 78.896,24.325C78.897,24.333 90.333,41.765 90.333,41.765C90.567,42.123 91.047,42.222 91.405,41.988C91.762,41.754 91.862,41.273 91.628,40.916Z" style="fill:rgb(35,31,32);fill-rule:nonzero;"/></g></svg>