<svg width="30" height="30" viewBox="0 0 30 30" fill="none" xmlns="http://www.w3.org/2000/svg">
<g clip-path="url(#clip0)">
<path d="M28.5 23V22.5C28.5 22.2238 28.2761 22 28 22C27.7239 22 27.5 22.2238 27.5 22.5V23H24V6.94999C25.1632 6.71077 25.9985 5.68754 26 4.49999V3.49999C26.0003 3.36708 25.9474 3.23959 25.853 3.14599L23.1465 0.439491C22.866 0.157134 22.484 -0.00114286 22.086 -9.21074e-06H3.914C3.51597 -0.00114286 3.13405 0.157134 2.8535 0.439491L0.147001 3.14599C0.0526386 3.23959 -0.00030365 3.36708 1.31021e-06 3.49999V4.49999C0.00150046 5.68754 0.836793 6.71077 2 6.94999V23.092C1.31173 23.3344 0.898655 24.0379 1.02231 24.7571C1.14596 25.4762 1.77028 26.0014 2.5 26H4.5C4.5 28.2091 6.29086 30 8.5 30C10.7091 30 12.5 28.2091 12.5 26H28.5C29.3284 26 30 25.3284 30 24.5C30 23.6716 29.3284 23 28.5 23ZM3 6.99999H3.5C4.28998 6.99777 5.03207 6.62097 5.5 5.98449C5.96793 6.62097 6.71003 6.99777 7.5 6.99999H8.5C9.28998 6.99777 10.0321 6.62097 10.5 5.98449C10.9679 6.62097 11.71 6.99777 12.5 6.99999H13.5C14.29 6.99777 15.0321 6.62097 15.5 5.98449C15.9679 6.62097 16.71 6.99777 17.5 6.99999H18.5C19.29 6.99777 20.0321 6.62097 20.5 5.98449C20.9679 6.62097 21.71 6.99777 22.5 6.99999H23V23H3V6.99999ZM10.41 0.99999L10.0765 2.99999H6.309L7.309 0.99999H10.41ZM18.691 0.99999L19.691 2.99999H15.9235L15.59 0.99999H18.691ZM6 3.99999H10V4.49999C10 5.32842 9.32843 5.99999 8.5 5.99999H7.5C6.67158 5.99999 6 5.32842 6 4.49999V3.99999ZM11 3.99999H15V4.49999C15 5.32842 14.3284 5.99999 13.5 5.99999H12.5C11.6716 5.99999 11 5.32842 11 4.49999V3.99999ZM16 3.99999H20V4.49999C20 5.32842 19.3284 5.99999 18.5 5.99999H17.5C16.6716 5.99999 16 5.32842 16 4.49999V3.99999ZM14.91 2.99999H11.09L11.4235 0.99999H14.5765L14.91 2.99999ZM25 4.49999C25 5.32842 24.3284 5.99999 23.5 5.99999H22.5C21.6716 5.99999 21 5.32842 21 4.49999V3.99999H25V4.49999ZM22.4395 1.14649L24.293 2.99999H20.809L19.809 0.99999H22.086C22.2185 1.00051 22.3455 1.05313 22.4395 1.14649ZM3.5605 1.14649C3.65452 1.05313 3.7815 1.00051 3.914 0.99999H6.191L5.191 2.99999H1.707L3.5605 1.14649ZM1 4.49999V3.99999H5V4.49999C5 5.32842 4.32843 5.99999 3.5 5.99999H2.5C1.67157 5.99999 1 5.32842 1 4.49999ZM8.5 29C6.84383 28.9983 5.50166 27.6561 5.5 26H6.5C6.5 27.1045 7.39543 28 8.5 28C9.60457 28 10.5 27.1045 10.5 26H11.5C11.4983 27.6561 10.1562 28.9983 8.5 29ZM9.5 26C9.5 26.5523 9.05229 27 8.5 27C7.94772 27 7.5 26.5523 7.5 26H9.5ZM28.5 25H2.5C2.22386 25 2 24.7761 2 24.5C2 24.2238 2.22386 24 2.5 24H28.5C28.7761 24 29 24.2238 29 24.5C29 24.7761 28.7761 25 28.5 25Z" fill="#C1254A"/>
<path d="M22 16.5V9C22 8.44771 21.5523 8 21 8H5C4.44772 8 4 8.44771 4 9V16.5C3.72386 16.5 3.5 16.7238 3.5 17C3.5 17.2761 3.72386 17.5 4 17.5H22C22.2761 17.5 22.5 17.2761 22.5 17C22.5 16.7238 22.2761 16.5 22 16.5ZM5 9H21V13.092C20.8399 13.0328 20.6707 13.0016 20.5 13H19V12.5C19 11.6716 18.3284 11 17.5 11H16.5C15.6716 11 15 11.6716 15 12.5V16.5H14V15C14 14.4477 13.5523 14 13 14H5V9ZM18 13H16V12.5C16 12.2239 16.2239 12 16.5 12H17.5C17.7761 12 18 12.2239 18 12.5V13ZM5 16.5V15H13V16.5H5ZM16 14H20.5C20.7761 14 21 14.2238 21 14.5V16.5H16V14Z" fill="#C1254A"/>
<path d="M5.5 18.5H4.5C4.22386 18.5 4 18.7239 4 19C4 19.2761 4.22386 19.5 4.5 19.5H5.5C5.77615 19.5 6 19.2761 6 19C6 18.7239 5.77615 18.5 5.5 18.5Z" fill="#C1254A"/>
<path d="M12 18.5H7.5C7.22386 18.5 7 18.7239 7 19C7 19.2761 7.22386 19.5 7.5 19.5H12C12.2761 19.5 12.5 19.2761 12.5 19C12.5 18.7239 12.2761 18.5 12 18.5Z" fill="#C1254A"/>
<path d="M5.5 20.5H4.5C4.22386 20.5 4 20.7239 4 21C4 21.2761 4.22386 21.5 4.5 21.5H5.5C5.77615 21.5 6 21.2761 6 21C6 20.7239 5.77615 20.5 5.5 20.5Z" fill="#C1254A"/>
<path d="M12 20.5H7.5C7.22386 20.5 7 20.7239 7 21C7 21.2761 7.22386 21.5 7.5 21.5H12C12.2761 21.5 12.5 21.2761 12.5 21C12.5 20.7239 12.2761 20.5 12 20.5Z" fill="#C1254A"/>
</g>
<defs>
<clipPath id="clip0">
<rect width="30" height="30" fill="white"/>
</clipPath>
</defs>
</svg>
