<svg xmlns="http://www.w3.org/2000/svg" width="512" height="512" x="0" y="0" viewBox="0 0 512.021 512.021" style="enable-background:new 0 0 512 512">
<g xmlns="http://www.w3.org/2000/svg">
	<g>
		<g>
			<path d="M481.515,229.003l-80.235-88.128c-15.381-15.424-42.091-15.531-57.749,0.128c-5.056,5.056-8.512,11.136-10.304,17.621     c-15.573-11.947-39.339-10.645-53.696,3.712c-5.056,5.056-8.512,11.136-10.347,17.6c-15.531-11.947-39.317-10.581-53.653,3.733     c-4.971,4.971-8.384,10.923-10.24,17.216l-37.803-37.803c-15.893-15.872-41.707-15.915-57.771,0.128     c-15.893,15.872-15.893,41.728,0,57.621l145.237,145.237l-86.101,13.525C145.557,382.923,128,403.147,128,426.677     c0,17.643,14.357,32,32,32h201.152c31.317,0,60.779-12.203,83.008-34.389l33.536-33.557     c22.144-22.123,34.325-51.563,34.325-82.859C512.021,278.645,501.184,250.635,481.515,229.003z M462.592,375.669l-33.536,33.557     c-18.155,18.133-42.283,28.117-67.904,28.117H160c-5.867,0-10.667-4.779-10.667-10.667c0-12.971,9.685-24.128,22.656-26.005     l106.987-16.811c3.968-0.619,7.232-3.413,8.491-7.232c1.237-3.797,0.235-8-2.603-10.837L124.8,205.728     c-7.552-7.573-7.552-19.883,0.128-27.584c3.797-3.776,8.768-5.675,13.739-5.675c4.971,0,9.941,1.899,13.739,5.696L215.04,240.8     c0.149,0.171,0.341,0.341,0.512,0.512l43.605,43.584c4.16,4.16,10.923,4.16,15.083,0c4.16-4.16,4.16-10.923,0-15.083     l-43.968-43.968c-7.189-7.595-7.061-19.648,0.491-27.221c7.339-7.296,20.096-7.339,27.435,0l20.971,20.992     c0.128,0.128,0.235,0.256,0.363,0.363l22.272,22.251c4.16,4.16,10.923,4.16,15.083,0c4.16-4.16,4.16-10.923,0-15.083     l-22.528-22.507c-7.275-7.595-7.189-19.733,0.405-27.349c7.317-7.296,20.096-7.339,27.435,0l22.272,22.357     c0.021,0.021,0.021,0.043,0.043,0.043l0.021,0.021c0.173,0.087,0.13,0.065,0.085,0.043c0,0,0,0.021,0.021,0.021     c0.021,0.021,0.021,0.021,0.021,0.021c0.021,0.021,0.021,0.021,0.021,0.021h0.021c0.021,0,0.021,0,0.021,0     c4.224,3.925,10.795,3.819,14.848-0.277c4.139-4.16,4.139-10.901-0.021-15.061l-1.28-1.28     c-7.211-7.595-7.104-19.669,0.469-27.243c7.339-7.296,20.437-6.976,27.093-0.363l79.872,87.787     c16.107,17.707,24.96,40.597,24.96,64.512C490.667,333.472,480.683,357.557,462.592,375.669z" fill="#ffffff"/>
			<path d="M344.597,199.755h0.021c-0.022-0.011-0.043-0.021-0.043-0.021C344.597,199.755,344.619,199.755,344.597,199.755z" fill="#ffffff"/>
		</g>
	</g>
</g>
<g xmlns="http://www.w3.org/2000/svg">
	<g>
		<path d="M226.069,152.629c-15.552-34.389-49.835-56.619-87.403-56.619c-52.928,0-96,43.072-96,96    c0,37.547,22.229,71.851,56.597,87.403c1.429,0.64,2.923,0.939,4.395,0.939c4.075,0,7.936-2.347,9.728-6.272    c2.411-5.376,0.043-11.691-5.333-14.123C81.301,247.861,64,221.195,64,192.011c0-41.173,33.493-74.667,74.667-74.667    c29.184,0,55.851,17.301,67.947,44.053c2.432,5.376,8.725,7.765,14.123,5.333C226.091,164.32,228.48,157.984,226.069,152.629z" fill="#ffffff"/>
	</g>
</g>
<g xmlns="http://www.w3.org/2000/svg">
	<g>
		<path d="M272.533,156.363C256.427,95.712,201.365,53.344,138.667,53.344C62.208,53.344,0,115.552,0,192.011    c0,62.699,42.368,117.76,103.04,133.867c0.917,0.256,1.835,0.363,2.731,0.363c4.736,0,9.045-3.136,10.304-7.915    c1.515-5.696-1.856-11.541-7.573-13.056c-51.307-13.632-87.168-60.203-87.168-113.259c0-64.704,52.651-117.333,117.333-117.333    c53.035,0,99.627,35.84,113.259,87.168c1.493,5.675,7.147,9.088,13.056,7.573C270.656,167.904,274.027,162.059,272.533,156.363z" fill="#ffffff"/>
	</g>
</g>
</svg>
